<svg width="4160" height="2773" viewBox="0 0 4160 2773" fill="none" xmlns="http://www.w3.org/2000/svg">
<g clip-path="url(#clip0_1_147)">
<path d="M4056.51 1433.88C4250.48 1690.6 4109.99 1868.1 4102.76 2080.87C4094.95 2307.51 4250.77 2614.82 4012.85 2718.6C3770.31 2824.41 3312.97 2762.83 2887.43 2611.06C2498.89 2472.58 2257.79 2150.25 1883.42 1959.45C1428.97 1728.18 864.956 1696.67 508.798 1399.77C151.194 1101.72 74.585 757.704 185.017 544.067C289.379 341.704 780.831 411.664 1065.01 322.335C1352.65 231.85 1418.85 -71.1162 1856.24 17.6343C2293.06 106.385 2682.46 473.529 3084.3 732.264C3437.57 959.778 3859.64 1173.13 4056.51 1433.88Z" stroke="#F6F6F6" stroke-width="2.8909"/>
<path d="M3852.7 1428.1C4024.71 1655.91 3900.11 1813.46 3893.75 2002.52C3886.81 2203.73 4024.99 2476.63 3813.67 2568.56C3598.3 2662.52 3192.42 2607.59 2814.29 2472.87C2469.4 2349.72 2255.48 2063.81 1923.02 1894.4C1519.46 1688.86 1019.04 1661.11 702.777 1397.46C385.356 1132.94 317.42 827.375 415.133 637.732C507.93 457.918 944.167 520.361 1196.25 440.862C1451.52 360.495 1510.2 91.6416 1898.74 170.274C2286.41 248.906 2632.16 574.999 2988.9 804.537C3303.14 1007.19 3677.8 1196.54 3852.7 1428.1Z" stroke="#F6F6F6" stroke-width="2.8909"/>
<path d="M3641.66 1422.03C3791.41 1620.06 3683 1757.09 3677.22 1921.58C3671.15 2096.48 3791.41 2333.82 3607.84 2413.61C3420.51 2495.13 3067.82 2447.72 2739.12 2330.35C2439.05 2223.39 2253.16 1974.77 1964.08 1827.62C1613.41 1648.97 1178.04 1624.68 903.116 1395.72C627.035 1165.61 568.061 900.225 653.053 735.155C733.709 578.757 1113 633.106 1332.13 564.014C1554.15 494.054 1605.03 260.181 1942.68 328.984C2279.76 397.498 2580.41 680.806 2890.61 880.567C3163.8 1056.04 3489.6 1220.83 3641.66 1422.03Z" stroke="#F6F6F6" stroke-width="2.8909"/>
<path d="M3446.24 1416.54C3575.17 1587.1 3481.8 1705.05 3476.88 1846.42C3471.68 1997.03 3575.17 2201.13 3417.04 2269.93C3256.02 2340.18 2952.18 2299.13 2669.16 2198.24C2411.01 2106.31 2250.85 1892.09 2002.23 1765.47C1700.43 1611.67 1325.77 1590.86 1089 1393.7C851.369 1195.68 800.489 967.294 873.918 825.351C943.299 690.924 1269.68 737.468 1458.46 677.915C1649.55 617.785 1693.49 416.578 1984.02 475.552C2274.27 534.527 2532.71 778.518 2799.83 950.238C3035.15 1101.43 3315.28 1243.09 3446.24 1416.54Z" stroke="#F6F6F6" stroke-width="2.8909"/>
<path d="M3242.72 1410.76C3349.68 1552.41 3272.21 1650.41 3268.16 1768.36C3263.82 1893.54 3349.97 2063.23 3218.44 2120.76C3084.59 2179.16 2831.92 2145.05 2596.6 2061.21C2381.81 1984.6 2248.83 1806.52 2041.84 1701.29C1790.91 1573.51 1479.27 1556.17 1282.4 1392.26C1084.95 1227.47 1042.46 1037.54 1103.46 919.594C1161.27 807.717 1432.73 846.454 1589.7 797.02C1748.7 747.008 1785.13 579.625 2026.81 628.77C2268.2 677.626 2483.28 880.567 2705.3 1023.38C2900.73 1148.84 3134.02 1266.5 3242.72 1410.76Z" stroke="#F6F6F6" stroke-width="2.8909"/>
</g>
<defs>
<clipPath id="clip0_1_147">
<rect width="4160" height="2772.95" fill="white"/>
</clipPath>
</defs>
</svg>
